<svg width="80" height="80" viewBox="0 0 80 80" fill="none" xmlns="http://www.w3.org/2000/svg">
<path d="M68.218 0H12.2416C5.80523 0 0.539062 5.26616 0.539062 11.7026V67.6848C0.539062 74.1212 5.80523 79.3874 12.2416 79.3874H68.2239C74.6603 79.3874 79.9265 74.1212 79.9265 67.6848V11.7026C79.9206 5.26616 74.6603 0 68.218 0ZM67.4661 42.3721H58.0456V76.4559H43.9498V42.3721H36.899V30.6227H43.9498V23.5719C43.9498 13.9875 47.9287 8.28543 59.2509 8.28543H68.6627V20.0319H62.7763C58.3762 20.0319 58.0836 21.679 58.0836 24.7422L58.0456 30.6227H68.7095L67.4661 42.3721Z" fill="#1877F2"/>
</svg>
