<svg width="80" height="80" viewBox="0 0 80 80" fill="none" xmlns="http://www.w3.org/2000/svg">
<path d="M60.5994 0H18.5888C8.35269 0 0.0546875 8.298 0.0546875 18.5341V60.5447C0.0546875 70.7808 8.35269 79.0788 18.5888 79.0788H60.5994C70.8355 79.0788 79.1335 70.7808 79.1335 60.5447V18.5341C79.1335 8.298 70.8355 0 60.5994 0Z" fill="url(#paint0_radial_2_7)"/>
<path d="M60.5994 0H18.5888C8.35269 0 0.0546875 8.298 0.0546875 18.5341V60.5447C0.0546875 70.7808 8.35269 79.0788 18.5888 79.0788H60.5994C70.8355 79.0788 79.1335 70.7808 79.1335 60.5447V18.5341C79.1335 8.298 70.8355 0 60.5994 0Z" fill="url(#paint1_radial_2_7)"/>
<path d="M39.5883 8.64941C31.1991 8.64941 30.1461 8.68617 26.8513 8.83599C23.5628 8.98673 21.318 9.50723 19.354 10.2711C17.322 11.0601 15.5986 12.1156 13.8818 13.8331C12.1634 15.5503 11.1078 17.2736 10.3164 19.3047C9.55035 21.2693 9.02924 23.515 8.88127 26.802C8.73392 30.0971 8.69531 31.1504 8.69531 39.5399C8.69531 47.9294 8.73238 48.979 8.88189 52.2738C9.03325 55.5623 9.55375 57.8071 10.317 59.7711C11.1066 61.8031 12.1621 63.5264 13.8796 65.2433C15.5962 66.9617 17.3195 68.0197 19.35 68.8086C21.3155 69.5726 23.5606 70.0931 26.8485 70.2438C30.1436 70.3936 31.1957 70.4304 39.5846 70.4304C47.9746 70.4304 49.0243 70.3936 52.319 70.2438C55.6076 70.0931 57.8549 69.5726 59.8204 68.8086C61.8514 68.0197 63.5723 66.9617 65.2886 65.2433C67.007 63.5264 68.0622 61.8031 68.8539 59.772C69.6132 57.8071 70.1346 55.5617 70.2891 52.2744C70.437 48.9796 70.4757 47.9294 70.4757 39.5399C70.4757 31.1504 70.437 30.0977 70.2891 26.8026C70.1346 23.5141 69.6132 21.2696 68.8539 19.3056C68.0622 17.2736 67.007 15.5503 65.2886 13.8331C63.5705 12.115 61.852 11.0595 59.8185 10.2715C57.8493 9.50723 55.6033 8.98643 52.3147 8.83599C49.0197 8.68617 47.9706 8.64941 39.5787 8.64941H39.5883ZM36.8171 14.2161C37.6397 14.2149 38.5575 14.2161 39.5883 14.2161C47.8363 14.2161 48.8136 14.2458 52.0707 14.3938C55.0825 14.5315 56.7172 15.0347 57.8061 15.4576C59.2477 16.0173 60.2754 16.6867 61.356 17.7682C62.4371 18.8494 63.1062 19.8789 63.6675 21.3206C64.0904 22.4079 64.5942 24.0426 64.7313 27.0544C64.8793 30.3108 64.9114 31.2888 64.9114 39.5328C64.9114 47.7768 64.8793 48.7551 64.7313 52.0112C64.5936 55.023 64.0904 56.6577 63.6675 57.7453C63.1077 59.187 62.4371 60.2135 61.356 61.294C60.2748 62.3752 59.2483 63.0442 57.8061 63.6043C56.7184 64.029 55.0825 64.531 52.0707 64.6687C48.8142 64.8167 47.8363 64.8488 39.5883 64.8488C31.34 64.8488 30.3623 64.8167 27.1062 64.6687C24.0944 64.5297 22.4597 64.0265 21.3699 63.6037C19.9285 63.0436 18.8986 62.3745 17.8175 61.2934C16.7363 60.2122 16.0673 59.1851 15.506 57.7429C15.0831 56.6552 14.5793 55.0205 14.4421 52.0087C14.2942 48.7523 14.2645 47.7743 14.2645 39.5251C14.2645 31.2762 14.2942 30.3031 14.4421 27.0467C14.5799 24.0349 15.0831 22.4002 15.506 21.3113C16.066 19.8697 16.7363 18.8401 17.8178 17.7589C18.899 16.6778 19.9285 16.0084 21.3702 15.4474C22.459 15.0227 24.0944 14.5207 27.1062 14.3823C29.9558 14.2535 31.0601 14.2149 36.8171 14.2084V14.2161ZM56.0774 19.3451C54.031 19.3451 52.3706 21.0039 52.3706 23.0507C52.3706 25.0972 54.031 26.7575 56.0774 26.7575C58.1239 26.7575 59.7843 25.0972 59.7843 23.0507C59.7843 21.0042 58.1239 19.3439 56.0774 19.3439V19.3451ZM39.5883 23.6763C30.8278 23.6763 23.7249 30.7791 23.7249 39.5399C23.7249 48.3007 30.8278 55.4002 39.5883 55.4002C48.349 55.4002 55.4494 48.3007 55.4494 39.5399C55.4494 30.7794 48.3484 23.6763 39.5876 23.6763H39.5883ZM39.5883 29.243C45.2748 29.243 49.8852 33.8527 49.8852 39.5399C49.8852 45.2265 45.2748 49.8368 39.5883 49.8368C33.9014 49.8368 29.2916 45.2265 29.2916 39.5399C29.2916 33.8527 33.9014 29.243 39.5883 29.243Z" fill="white"/>
<defs>
<radialGradient id="paint0_radial_2_7" cx="0" cy="0" r="1" gradientUnits="userSpaceOnUse" gradientTransform="translate(21.06 85.1695) rotate(-90) scale(78.373 72.8931)">
<stop stop-color="#FFDD55"/>
<stop offset="0.1" stop-color="#FFDD55"/>
<stop offset="0.5" stop-color="#FF543E"/>
<stop offset="1" stop-color="#C837AB"/>
</radialGradient>
<radialGradient id="paint1_radial_2_7" cx="0" cy="0" r="1" gradientUnits="userSpaceOnUse" gradientTransform="translate(-13.1913 5.69646) rotate(78.681) scale(35.0332 144.408)">
<stop stop-color="#3771C8"/>
<stop offset="0.128" stop-color="#3771C8"/>
<stop offset="1" stop-color="#6600FF" stop-opacity="0"/>
</radialGradient>
</defs>
</svg>
