<svg width="80" height="80" viewBox="0 0 80 80" fill="none" xmlns="http://www.w3.org/2000/svg">
<path d="M11.3269 0C5.0794 0 0 5.0794 0 11.3269V67.9613C0 74.2088 5.0794 79.2882 11.3269 79.2882H67.9613C74.2088 79.2882 79.2882 74.2088 79.2882 67.9613V11.3269C79.2882 5.0794 74.2088 0 67.9613 0H11.3269Z" fill="black"/>
<path d="M65.5259 14.8662L47.1551 35.8563L68.7646 64.4213H51.8451L38.6068 47.0947L23.4394 64.4213H15.0327L34.6778 41.9623L13.9531 14.8662H31.2974L43.2791 30.7062L57.1192 14.8662H65.5259ZM58.8359 59.395L28.7666 19.627H23.758L54.1636 59.395H58.8182H58.8359Z" fill="white"/>
</svg>
