<svg width="80" height="79" viewBox="0 0 80 79" fill="none" xmlns="http://www.w3.org/2000/svg">
<path d="M67.8173 0H12.1207C5.71641 0 0.476562 5.23985 0.476562 11.6441V67.3466C0.476562 73.7508 5.71641 78.9907 12.1207 78.9907H67.8231C74.2274 78.9907 79.4672 73.7508 79.4672 67.3466V11.6441C79.4614 5.23985 74.2274 0 67.8173 0Z" fill="#FF0000"/>
<path d="M67.1644 26.0835C66.8426 24.8942 66.2148 23.8099 65.3435 22.9387C64.4722 22.0675 63.3879 21.4398 62.1986 21.118C57.8443 19.9307 40.3212 19.9307 40.3212 19.9307C40.3212 19.9307 22.7975 19.9667 18.4438 21.154C17.2546 21.4759 16.1703 22.1036 15.2991 22.9748C14.4279 23.846 13.8002 24.9302 13.4783 26.1195C12.1613 33.856 11.6503 45.6439 13.5144 53.0705C13.8362 54.2598 14.464 55.344 15.3352 56.2152C16.2064 57.0864 17.2906 57.7142 18.4799 58.036C22.8339 59.2233 40.3573 59.2233 40.3573 59.2233C40.3573 59.2233 57.8806 59.2233 62.2346 58.036C63.4239 57.7142 64.5081 57.0864 65.3793 56.2152C66.2505 55.344 66.8783 54.2598 67.2001 53.0705C68.5889 45.3234 69.0175 33.5424 67.1644 26.0835Z" fill="#FF0000"/>
<path d="M67.1644 26.0835C66.8426 24.8942 66.2148 23.8099 65.3435 22.9387C64.4722 22.0675 63.3879 21.4398 62.1986 21.118C57.8443 19.9307 40.3212 19.9307 40.3212 19.9307C40.3212 19.9307 22.7975 19.9667 18.4438 21.154C17.2546 21.4759 16.1703 22.1036 15.2991 22.9748C14.4279 23.846 13.8002 24.9302 13.4783 26.1195C12.1613 33.856 11.6503 45.6439 13.5144 53.0705C13.8362 54.2598 14.464 55.344 15.3352 56.2152C16.2064 57.0864 17.2906 57.7142 18.4799 58.036C22.8339 59.2233 40.3573 59.2233 40.3573 59.2233C40.3573 59.2233 57.8806 59.2233 62.2346 58.036C63.4239 57.7142 64.5081 57.0864 65.3793 56.2152C66.2505 55.344 66.8783 54.2598 67.2001 53.0705C68.5889 45.3234 69.0175 33.5424 67.1644 26.0835Z" fill="white"/>
<path d="M34.7422 47.9976L49.2791 39.5778L34.7422 31.1577V47.9976Z" fill="#FF0000"/>
</svg>
